<svg width="45" height="50" viewBox="0 0 45 50" fill="none" xmlns="http://www.w3.org/2000/svg">
<g clip-path="url(#clip0_406_246)">
<path d="M27.5 42.9688H19.6875C17.9688 42.9688 16.5625 44.375 16.5625 46.0938C16.5625 47.8125 17.9688 49.2188 19.6875 49.2188H40.4688C43.5156 49.2188 44.7656 45.3125 42.2656 43.5937L30.625 35.1562V32.0312" stroke="#1E1E1E" stroke-width="2" stroke-miterlimit="10" stroke-linecap="round" stroke-linejoin="round"/>
<path d="M14.2187 32.0312V35.1562L2.10933 43.5156C-0.390666 45.2344 0.859334 49.2188 3.90621 49.2188H11.875" stroke="#1E1E1E" stroke-width="2" stroke-miterlimit="10" stroke-linecap="round" stroke-linejoin="round"/>
<path d="M11.875 26.5625H17.1094C18.2031 26.5625 19.2969 25.9375 19.8438 25L21.4063 22.2656C21.7188 21.7187 22.5 21.7187 22.7344 22.2656L24.2969 25C24.8438 25.9375 25.8594 26.5625 27.0312 26.5625H32.2656" stroke="#1E1E1E" stroke-width="2" stroke-miterlimit="10" stroke-linecap="round" stroke-linejoin="round"/>
<path d="M24.3749 14.4531C27.1874 13.4375 29.1406 10.7812 29.0624 7.57809C28.9843 3.90622 25.8593 0.859344 22.2656 0.781219C18.2812 0.703094 14.9999 3.82809 14.9999 7.81247C14.9999 10.8593 16.9531 13.4375 19.6874 14.4531V15C19.6874 15.7812 19.0624 16.4843 18.2812 16.5625L14.7656 16.875C12.9687 17.0312 11.2499 18.0468 10.2343 19.5312L5.07807 27.1093C3.67182 29.2187 5.15619 32.0312 7.65619 32.0312H16.5624C18.0468 32.0312 19.5312 31.5625 20.7812 30.625L22.0312 29.6875L23.2812 30.625C24.5312 31.5625 26.0156 32.0312 27.4999 32.0312H36.4062C38.9062 32.0312 40.3906 29.2187 38.9843 27.1093L33.8281 19.5312C32.8124 18.0468 31.0937 17.0312 29.2968 16.875L25.7812 16.5625C24.9999 16.4843 24.3749 15.7812 24.3749 15V14.4531Z" stroke="#1E1E1E" stroke-width="2" stroke-miterlimit="10" stroke-linecap="round" stroke-linejoin="round"/>
</g>
<defs>
<clipPath id="clip0_406_246">
<rect width="44.375" height="50" fill="white"/>
</clipPath>
</defs>
</svg>
