<svg width="52" height="52" viewBox="0 0 52 52" fill="none" xmlns="http://www.w3.org/2000/svg">
<path d="M24.3871 35.2742L31.3226 33.1774L49.7903 18.258C51.1613 17.129 51.3226 15.1935 50.2742 13.8225C49.1451 12.5322 47.2097 12.2903 45.9193 13.4193L28.1774 28.3387L24.3871 35.2742Z" stroke="#1E1E1E" stroke-width="2" stroke-miterlimit="10" stroke-linecap="round" stroke-linejoin="round"/>
<path d="M47.2097 20.3549L45.4355 18.1775" stroke="#1E1E1E" stroke-width="2" stroke-miterlimit="10" stroke-linejoin="round"/>
<path d="M13.9032 38.9032L5.03223 40.5161" stroke="#1E1E1E" stroke-width="2" stroke-miterlimit="10" stroke-linecap="round" stroke-linejoin="round"/>
<path d="M4.87097 47.129L1 47.7742V44.5484C1 42.2903 2.85484 40.5161 5.03226 40.5161C7.29032 40.5161 9.06452 42.371 9.06452 44.5484V46.9677C9.06452 49.2258 10.9194 51 13.0968 51C15.3548 51 17.129 49.1452 17.129 46.9677V45.7581C17.129 43.4194 16.4839 41.0806 15.2742 39.0645L3.90323 20.3548C2.04839 17.2097 1 13.5806 1 9.87097V9.06452C1 6.80645 2.85484 5.03226 5.03226 5.03226M5.03226 5.03226C7.29032 5.03226 9.06452 6.8871 9.06452 9.06452V10.6774L33.2581 6.64516V5.03226C33.2581 2.77419 31.4032 1 29.2258 1L5.03226 5.03226Z" stroke="#1E1E1E" stroke-width="2" stroke-miterlimit="10" stroke-linecap="square" stroke-linejoin="round"/>
<path d="M11.4839 19.5484L23.5807 17.129" stroke="#1E1E1E" stroke-width="2" stroke-miterlimit="10" stroke-linecap="round" stroke-linejoin="round"/>
<path d="M14.7097 24.3871L26 21.9678" stroke="#1E1E1E" stroke-width="2" stroke-miterlimit="10" stroke-linecap="round" stroke-linejoin="round"/>
<path d="M17.9354 29.2258L21.9677 28.4193" stroke="#1E1E1E" stroke-width="2" stroke-miterlimit="10" stroke-linecap="round" stroke-linejoin="round"/>
<path d="M39.7097 32.4517L40.2742 33.3388C41.4838 35.3549 42.129 37.6936 42.129 40.0323C42.129 42.2097 40.6774 44.0646 38.5806 44.6291L13.9032 51" stroke="#1E1E1E" stroke-width="2" stroke-miterlimit="10" stroke-linecap="round" stroke-linejoin="round"/>
<path d="M26.3226 7.77417C26.7259 10.1935 27.613 12.5322 28.9033 14.629L31.8871 19.4677" stroke="#1E1E1E" stroke-width="2" stroke-miterlimit="10" stroke-linecap="round" stroke-linejoin="round"/>
</svg>
