<svg width="29" height="47" viewBox="0 0 29 47" fill="none" xmlns="http://www.w3.org/2000/svg">
<path d="M16.7073 14.7979C13.6386 14.7979 11.2518 15.7526 9.81978 16.7073V0H0V30.5504H9.88797V28.9138C9.88797 25.9133 11.7974 23.7993 14.4569 23.7993C17.5938 23.7993 19.0258 26.1861 19.0258 28.7092V46.1666H28.9138V26.5952C28.8456 19.9805 23.5265 14.7979 16.7073 14.7979Z" fill="#EF5B5B"/>
<path d="M4.90989 36.2786C2.18217 36.2786 0 38.4608 0 41.1885C0 43.9162 2.18217 46.0984 4.90989 46.0984C7.6376 46.0984 9.81978 43.9162 9.81978 41.1885C9.88797 38.4608 7.7058 36.2786 4.90989 36.2786Z" fill="#EF5B5B"/>
</svg>
