<svg width="50" height="50" viewBox="0 0 50 50" fill="none" xmlns="http://www.w3.org/2000/svg">
<g clip-path="url(#clip0_406_208)">
<path d="M45.0207 28.2158L37.9668 24.2739C37.5519 24.0664 37.1369 24.2739 36.9294 24.4813C36.722 24.8963 36.9294 25.3112 37.1369 25.5187L43.7759 29.2531V32.3652L38.7967 35.8921C37.1369 37.1369 34.6473 37.3444 32.7801 36.0996L14.7303 25.5187C14.3153 25.3112 13.9004 24.6888 13.9004 24.0664V23.444C13.9004 22.4067 14.3153 21.3693 15.1452 20.9544L20.9543 17.0125L28.6307 21.1618L27.3859 22.6141C27.1784 23.0291 27.1784 23.444 27.5933 23.6515C27.8008 23.8589 28.0083 23.8589 28.0083 23.8589C28.2158 23.8589 28.4232 23.8589 28.6307 23.6515L32.7801 18.6722L33.8174 19.2946C34.0249 19.2946 34.0249 19.2946 34.2324 19.2946C34.4398 19.2946 34.8548 19.0872 34.8548 18.8797C35.0622 18.4647 34.8548 18.0498 34.4398 17.8423L33.6099 17.4274L47.0954 1.03736C47.7178 1.03736 47.7178 0.41495 47.5104 0.207482C47.0954 1.26631e-05 46.6805 1.26631e-05 46.2655 0.207482L29.8755 20.1245L21.5768 15.5602C21.3693 15.3527 20.9543 15.3527 20.7469 15.5602L14.5228 20.1245C13.278 20.9544 12.4481 22.4067 12.4481 24.0664V24.6888C12.4481 25.7262 13.0705 26.7635 13.9004 27.3859L31.9502 37.9668C32.9875 38.5892 34.2324 39.0042 35.4772 39.0042C36.9295 39.0042 38.3817 38.5892 39.6265 37.7594L45.0207 33.8174C45.2282 33.61 45.4357 33.4025 45.4357 33.195V29.0457C45.4357 28.6307 45.2282 28.4233 45.0207 28.2158Z" fill="#1E1E1E"/>
<path d="M38.7967 34.2323C39.2117 34.0249 39.2117 33.6099 39.0042 33.195C38.7967 32.7801 38.3818 32.7801 37.9669 32.9875L37.137 33.6099C36.5146 34.0249 35.6847 34.0249 34.8548 33.8174L34.2324 35.2697C34.8548 35.4772 35.2698 35.6846 35.8922 35.6846C36.722 35.6846 37.3445 35.4772 37.9669 35.0622L38.7967 34.2323Z" fill="#1E1E1E"/>
<path d="M31.5353 41.7012L21.7842 48.5477L2.07469 36.9294L11.2033 30.4979C11.6183 30.2904 11.6183 29.668 11.4108 29.4606C11.2033 29.0456 10.5809 29.0456 10.3734 29.2531L0.207469 36.307C0.207469 36.307 0 36.5145 0 36.722C0 37.1369 0.207469 37.3444 0.414938 37.3444L21.5768 49.7925C21.7842 49.7925 21.7842 50 21.9917 50C22.1992 50 22.4066 50 22.4066 49.7925L32.5726 42.7386C32.9875 42.5311 32.9876 41.9087 32.7801 41.7012C32.5726 41.4938 31.9502 41.2863 31.5353 41.7012Z" fill="#1E1E1E"/>
<path d="M49.7926 4.1494C49.3776 3.94193 48.9627 3.94193 48.7552 4.35687L31.5353 25.5187C31.3279 25.9336 31.3279 26.3486 31.7428 26.556C31.9503 26.7635 32.1577 26.7635 32.1577 26.7635C32.3652 26.7635 32.5727 26.7635 32.7801 26.556L49.7926 5.18674C50.2075 4.77181 50.2075 4.35687 49.7926 4.1494Z" fill="#1E1E1E"/>
<path d="M5.18667 7.05394L7.05389 7.67635C8.2987 7.88382 9.33604 8.92116 9.54351 10.166L10.1659 12.0332C10.3734 12.2407 10.5809 12.4481 10.9958 12.4481C11.4107 12.4481 11.6182 12.2407 11.8257 11.8257L12.4481 9.95851C12.863 8.71369 13.6929 7.67635 14.9377 7.46888L16.5975 7.05394C17.0124 7.05394 17.2199 6.639 17.2199 6.22407C17.2199 5.80913 17.0124 5.60166 16.5975 5.60166L14.9377 4.97925C13.6929 4.56432 12.6555 3.52697 12.2406 2.28216L11.6182 0.622407C11.6182 0.207469 11.2033 0 10.9958 0C10.7883 0 10.3734 0.207469 10.1659 0.622407L9.54351 2.28216C9.33604 3.52697 8.2987 4.56432 7.05389 4.97925L5.18667 5.60166C4.9792 5.60166 4.77173 6.0166 4.77173 6.22407C4.77173 6.43153 4.9792 6.84647 5.18667 7.05394ZM10.9958 3.3195C11.4107 4.56432 12.6555 5.60166 13.9004 6.22407C12.6555 6.84647 11.4107 7.88382 10.9958 9.12863C10.3734 7.88382 9.33604 6.84647 8.09123 6.22407C9.33604 5.60166 10.3734 4.56432 10.9958 3.3195Z" fill="#1E1E1E"/>
<path d="M0.414938 16.3901L2.07469 17.2199C2.48963 17.4274 2.6971 17.8423 2.90456 18.0498L3.94191 19.7096C4.14938 20.1245 4.35685 20.332 4.77178 20.332C4.97925 20.332 5.39419 20.1245 5.39419 19.917L6.22407 18.2573C6.43153 17.8423 6.84647 17.6349 7.05394 17.4274L8.71369 16.3901C8.92116 16.1826 9.12863 15.9751 9.12863 15.7677C9.12863 15.5602 9.3361 15.1453 8.92116 14.9378L7.26141 14.1079C6.84647 13.9004 6.639 13.4855 6.22407 13.0706L5.39419 11.4108C5.18672 10.9959 4.35685 10.9959 3.94191 11.4108L3.11203 13.0706C2.90456 13.4855 2.48963 13.9004 2.07469 14.1079L0.414938 14.9378C0.207469 15.1453 0 15.3527 0 15.5602C0 15.7677 0.207469 16.1826 0.414938 16.3901ZM2.90456 15.3527C3.52697 14.9378 4.14938 14.5228 4.35685 13.9004L4.56432 13.4855L4.77178 13.9004C5.39419 14.5228 5.80913 14.9378 6.43153 15.3527L6.84647 15.5602L6.43153 15.9751C5.80913 16.1826 5.39419 16.805 4.97925 17.4274L4.77178 17.8423L4.35685 17.4274C4.14938 16.805 3.52697 16.1826 2.90456 15.9751L2.48963 15.5602L2.90456 15.3527Z" fill="#1E1E1E"/>
</g>
<defs>
<clipPath id="clip0_406_208">
<rect width="50" height="50" fill="white"/>
</clipPath>
</defs>
</svg>
