<svg width="170" height="208" viewBox="0 0 170 208" fill="none" xmlns="http://www.w3.org/2000/svg">
<g clip-path="url(#clip0_4_43)">
<path d="M170 205.708C170 206.473 169.395 207.075 168.625 207.075H1.3754C0.605178 207.075 0 206.473 0 205.708C0 204.942 0.605178 204.341 1.3754 204.341H168.625C169.395 204.341 170 204.997 170 205.708Z" fill="#D8D0BC"/>
<path d="M96.3655 158.297C126.838 152.056 146.452 122.445 140.173 92.1582C133.894 61.8713 104.101 42.3778 73.628 48.6183C43.1552 54.8587 23.542 84.47 29.8208 114.757C36.0995 145.044 65.8926 164.537 96.3655 158.297Z" fill="#FFDC68"/>
<path d="M116.689 71.5219C115.699 74.4747 116.414 74.0919 114.214 75.8964C104.421 84.6999 90.5566 78.8491 80.3786 70.4283L75.7573 76.2791C75.8673 76.1151 83.2945 83.1142 94.4077 86.6137C99.9644 88.3635 106.566 88.0354 111.188 86.231C115.809 84.3718 118.56 82.0752 119.275 81.4738C119.33 81.4738 122.246 78.9585 119.275 81.4738C119.495 81.6378 124.447 76.6072 124.997 76.1151L127.032 74.7481C128.078 74.0372 128.793 72.2875 128.683 71.0845L128.243 67.913C128.078 66.6554 126.867 65.179 125.547 64.5775L124.777 64.1948C123.511 63.5933 122.081 63.8667 121.641 64.7963L121.201 65.6711C120.705 66.6007 119.605 67.8584 118.67 68.4052L118.34 68.6239C117.57 69.116 117.019 70.5377 116.689 71.5219Z" fill="#FFA685"/>
<path d="M83.6796 69.8269C79.4984 66.7648 75.5372 63.2105 71.5761 59.4923C69.7605 57.7972 66.5696 58.2346 64.3689 60.4765C62.1683 62.7184 61.8932 65.9992 63.7638 67.749C67.89 71.6313 72.1812 75.4043 76.9126 78.9585L83.6796 69.8269Z" fill="#5CA3A3"/>
<path opacity="0.33" d="M78.9483 66.1086L71.6311 74.7481L74.2169 76.8806L81.3139 68.0224L78.9483 66.1086Z" fill="#5CA3A3"/>
<path d="M61.123 188.866C59.3625 192.42 54.521 200.404 52.2654 203.684C51.1651 205.27 48.7443 205.489 47.0939 204.122C45.3884 202.755 44.7282 200.677 45.6634 199.31C47.644 196.357 52.3754 188.702 53.9159 185.476L61.123 188.866Z" fill="#1E1E1E"/>
<path d="M50.1747 192.366C57.822 179.953 62.2233 165.299 60.4077 151.301C58.7573 137.193 50.4498 124.617 39.2265 115.048C37.521 113.571 37.521 110.564 39.3366 108.322C41.0971 106.08 44.123 105.588 46.1036 107.283C58.4822 117.836 68.7152 132.873 70.6958 149.988C72.8414 167.049 67.6149 183.835 59.0323 197.779L50.1747 192.366Z" fill="#1A3B51"/>
<path opacity="0.55" d="M62.9385 190.616L53.6408 186.077L52.3204 188.647L61.4531 193.514L62.9385 190.616Z" fill="#1A3B51"/>
<path opacity="0.55" d="M61.4531 193.514L52.3204 188.593L50.1748 192.366L59.0324 197.779C59.8576 196.412 60.6829 194.99 61.4531 193.514Z" fill="#24455B"/>
<path d="M32.4596 189.85C31.3042 193.404 28.5534 200.13 27.013 203.575C26.2977 205.215 23.9871 205.762 22.0615 204.723C20.1359 203.684 19.0906 201.825 19.7508 200.349C21.1262 197.232 23.822 190.725 24.8673 187.444L32.4596 189.85Z" fill="#1E1E1E"/>
<path d="M22.2265 194.553C32.9547 168.689 33.2848 138.068 19.1456 113.954C18.0453 112.149 19.1456 109.415 21.5663 107.884C23.9871 106.353 26.9579 106.791 28.1683 108.869C44.123 136.154 43.5728 170.329 31.7994 198.49L22.2265 194.553Z" fill="#1A3B51"/>
<path opacity="0.55" d="M34.4952 191.327L24.6473 188.046L23.767 190.67L33.5049 194.17L34.4952 191.327Z" fill="#1A3B51"/>
<path opacity="0.55" d="M33.5048 194.17L23.767 190.67L22.2265 194.553L31.8544 198.435L33.5048 194.17Z" fill="#24455B"/>
<path d="M47.3139 199.474H56.8867C57.1068 201.224 58.5922 202.591 60.4077 202.591H68.9903C68.9903 202.7 68.9903 206.911 68.9903 206.911H43.7928V202.974C43.7928 201.06 45.3883 199.474 47.3139 199.474Z" fill="#3B2314"/>
<path d="M20.8511 199.474H30.4239C30.644 201.224 32.1294 202.591 33.945 202.591H42.5275C42.5275 202.7 42.5275 206.911 42.5275 206.911H17.3301V202.974C17.3301 201.06 18.9255 199.474 20.8511 199.474Z" fill="#3B2314"/>
<path d="M31.6343 121.5C22.2816 121.937 14.4143 112.642 16.5049 102.088L17.2751 98.3153L50.6149 105.642L50.0097 108.431C48.6343 115.594 41.1521 121.117 31.6343 121.5Z" fill="#1A3B51"/>
<path d="M29.3236 46.369C30.0388 44.8926 34.5502 44.5645 35.2104 43.1428C36.4757 43.4162 37.7961 43.6896 39.0615 43.963C44.288 45.166 49.5146 46.8064 54.5761 49.0483C60.9579 51.837 66.7346 55.3365 71.7961 59.711C70.9159 61.5701 70.0356 63.4839 69.1553 65.2884C68.6602 66.3273 64.3139 66.2726 63.8188 67.3662C56.8317 82.4033 55.0162 97.2217 52.7055 110.782L12.9838 104.166C16.7799 82.7314 21.5663 62.8277 29.3236 46.369Z" fill="#5CA3A3"/>
<path opacity="0.33" d="M54.0259 104.713L14.8543 95.4719L13.9741 99.4635L53.3657 107.556L54.0259 104.713Z" fill="#5CA3A3"/>
<path d="M54.6311 49.0483C51.7702 47.7907 48.8544 46.7517 45.8835 45.8222C44.343 49.9779 46.3236 55.1178 50.835 57.1957C55.3463 59.2735 60.5728 57.6878 62.8835 53.3134C60.2427 51.7277 57.4919 50.306 54.6311 49.0483Z" fill="#FFA685"/>
<path opacity="0.33" d="M62.8835 53.2587C60.5728 57.6332 55.3462 59.2189 50.8349 57.141C46.3236 55.0632 44.343 49.9232 45.8835 45.7675L42.3624 44.7833C40.3818 50.47 43.1877 57.5785 49.3495 60.3672C55.4563 63.1012 62.6084 61.2421 65.9644 55.2819L62.8835 53.2587Z" fill="#5CA3A3"/>
<path d="M69.8155 94.9251C66.3495 96.2921 67.3398 96.2921 63.8738 96.1281C48.0291 95.1438 38.1812 80.4895 37.6311 64.9056L30.1489 65.5617C30.2039 65.3977 30.3139 78.1382 38.1262 89.4571C45.9935 101.651 61.7832 103.565 63.4337 103.619C63.4337 103.783 71.576 104.166 72.4563 104.111L75.2071 104.713C76.6925 105.096 78.6731 104.275 79.7184 103.346L82.1942 100.885C83.1845 99.901 83.5696 98.0419 83.1845 96.6749L82.9644 95.8547C82.5243 94.4877 81.2039 93.6675 79.9935 93.9409L78.8932 94.2143C77.6828 94.4877 77.7929 93.7221 76.5825 93.3941L76.0874 93.2847C74.822 92.9019 70.9709 94.433 69.8155 94.9251Z" fill="#FFA685"/>
<path d="M40.2718 67.1475C39.5016 61.2967 39.6667 55.1725 40.3819 49.1029C40.767 46.3689 38.5663 43.6896 35.4854 43.1428C32.4045 42.596 29.4887 44.6192 29.0485 47.7906C28.2783 54.6257 28.0583 61.6247 28.9935 68.6785L40.2718 67.1475Z" fill="#5CA3A3"/>
<path opacity="0.33" d="M39.7767 60.3671L28.3883 60.5858C28.3883 61.8982 28.5534 63.2652 28.6084 64.6322L39.9967 63.812C39.8867 62.609 39.7767 61.5154 39.7767 60.3671Z" fill="#5CA3A3"/>
<path d="M72.2913 95.472C72.6764 94.433 73.8867 93.3941 74.9871 93.2301L77.7929 92.7379C78.8932 92.5192 80.4887 92.9567 81.3689 93.7222L83.0194 95.1439C83.8997 95.8547 89.4563 98.37 89.4563 98.37L87.2007 103.182C87.2007 103.182 85.055 103.018 81.699 102.69C80.5987 102.58 78.9482 102.252 78.068 101.487L77.7379 101.213C76.8576 100.503 75.3172 99.573 74.2719 99.1902L73.2816 98.8075C72.2362 98.4247 71.6861 97.2217 72.0712 96.1828L72.2913 95.472Z" fill="#FFA685"/>
<path d="M86.5405 106.955C94.7929 110.509 108.107 113.626 117.129 104.275C124.887 95.3079 125.052 84.7546 125.272 75.4589C125.217 73.2717 123.181 71.5766 120.65 71.7406C118.12 71.85 116.084 73.5451 116.139 75.5136C116.249 83.9344 115.094 93.066 110.528 97.9872C106.291 102.908 97.7638 101.815 90.0615 98.534L86.5405 106.955Z" fill="#73472B"/>
<path d="M85.7702 96.5655L81.589 104.658C83.2395 105.424 84.8349 106.189 86.5404 106.9L90.0615 98.4793C88.6311 97.9325 87.2006 97.2217 85.7702 96.5655Z" fill="#F6921E"/>
<path d="M133.359 206.856H134.625L136.605 196.412H133.359V206.856Z" fill="#1E1E1E"/>
<path d="M120.54 204.942C123.181 207.567 127.417 207.567 130.003 204.942L134.79 200.185C137.43 197.56 137.43 193.35 134.79 190.78L120.54 204.942Z" fill="#A42B19"/>
<path d="M132.314 198.326C130.498 200.13 127.803 200.677 125.492 199.966L134.735 190.78C135.67 191.709 136.275 192.912 136.55 194.115L132.314 198.326Z" fill="#3B2314"/>
<path d="M128.408 124.835V198.271L134.79 194.279V124.835H128.408Z" fill="#3B2314"/>
<path d="M150.139 206.856H151.405L153.385 196.412H150.139V206.856Z" fill="#1E1E1E"/>
<path d="M137.32 204.942C139.961 207.567 144.197 207.567 146.783 204.942L151.57 200.185C154.21 197.56 154.21 193.35 151.57 190.78L137.32 204.942Z" fill="#A42B19"/>
<path d="M149.149 198.326C147.333 200.13 144.638 200.677 142.327 199.966L151.57 190.78C152.505 191.709 153.11 192.912 153.385 194.115L149.149 198.326Z" fill="#3B2314"/>
<path d="M145.243 124.835V198.271L151.57 194.279V124.835H145.243Z" fill="#3B2314"/>
<path d="M156.906 112.696C156.906 123.96 147.719 133.037 136.44 133.037C125.107 133.037 115.974 123.906 115.974 112.696V77.3181C115.974 66.0539 125.162 56.977 136.44 56.977C147.774 56.977 156.906 66.1086 156.906 77.3181V112.696Z" fill="#F6921E"/>
<path d="M156.906 114.446H115.919V173.446H156.906V114.446Z" fill="#EF5B5B"/>
<path d="M108.272 37.8388C104.091 37.8388 103.1 40.6275 102.77 42.432C102.165 42.432 100.295 42.432 100.295 42.432" stroke="#A42B19" stroke-width="2.313" stroke-linecap="round"/>
<path opacity="0.55" d="M156.576 106.572H116.304V110.236H156.576V106.572Z" fill="#F6921E"/>
<path d="M59.0874 30.5663C56.7217 29.7461 54.1359 30.9491 53.3107 33.355L48.2492 47.5719C47.4239 49.9232 48.6343 52.4931 51.055 53.3133C53.4207 54.1335 56.0065 52.9306 56.8317 50.5246L61.8932 36.2531C62.7184 33.9565 61.4531 31.3865 59.0874 30.5663Z" fill="#FFA685"/>
<path d="M82.6343 18.8647L76.0874 37.4014C74.1068 41.7212 70.5307 45.0567 66.3495 46.7518C65.8544 46.6971 58.7023 44.0724 58.5922 44.0724C50.6699 41.2837 46.5437 32.6989 49.2945 24.8249L54.8511 9.18631L82.6343 18.8647Z" fill="#FFA685"/>
<path d="M49.6246 19.4115C47.424 18.646 45.0033 19.7943 44.233 21.9815C43.4628 24.1687 44.6181 26.5747 46.8188 27.3402L53.3107 29.6368L55.8965 21.5987L49.6246 19.4115Z" fill="#FFA685"/>
<path d="M92.2071 10.608L67.4499 1.96849C63.7088 0.656164 59.8026 1.31233 56.7767 3.3355C56.3366 1.96849 55.3463 0.820206 53.8609 0.328082C53.4207 0.109361 52.9256 0 52.4854 0L53.3107 1.69509C53.8058 2.73402 53.9159 4.53847 53.5308 5.63208L52.7055 8.03802C52.7055 8.0927 52.6505 8.0927 52.6505 8.14738L48.6893 19.1381L50.2848 19.6849L49.2945 22.5283C48.8544 23.8406 49.5146 25.2623 50.835 25.6998C52.1554 26.1372 53.5858 25.4811 54.0259 24.1687L54.6311 22.4736C55.5664 20.8332 57.602 20.013 59.5275 20.6692L61.178 16.0214C62.1133 14.3809 64.1489 13.5607 66.0194 14.2169L82.3042 19.9037C84.945 20.8332 87.8058 19.5756 88.9612 17.115L86.5955 16.2948C89.0162 15.0918 90.9968 13.1233 92.2071 10.608Z" fill="#1E1E1E"/>
<path d="M75.4822 29.8555C74.822 29.6367 74.4369 28.8712 74.712 28.2151C74.9321 27.5589 75.7023 27.2308 76.3625 27.4495C77.0227 27.6683 77.4078 28.4338 77.1327 29.0899C76.8576 29.7461 76.1424 30.0742 75.4822 29.8555Z" fill="#1E1E1E"/>
<path d="M65.8544 26.52C65.1942 26.3013 64.8641 25.5357 65.0842 24.8796C65.3043 24.2234 66.0745 23.8953 66.7347 24.1141C67.3949 24.3328 67.78 25.0983 67.5049 25.7545C67.2848 26.4106 66.5146 26.7387 65.8544 26.52Z" fill="#1E1E1E"/>
<path d="M62.0032 33.8471C61.123 36.3624 62.4434 39.1511 64.9741 40.026C67.5049 40.9009 70.3107 39.5886 71.1909 37.0733L62.0032 33.8471Z" fill="#F6E8E7"/>
<path d="M126.702 46.0955C126.702 50.3059 130.113 53.6961 134.35 53.6961C138.586 53.6961 141.997 50.3059 141.997 46.0955C141.997 41.8851 138.586 38.495 134.35 38.495C130.113 38.495 126.702 41.9398 126.702 46.0955Z" fill="#CCCCCC"/>
<path d="M123.181 51.5089L126.537 64.1948C127.032 65.9992 128.848 67.0928 130.663 66.6007C132.479 66.1086 133.579 64.3041 133.084 62.4997L129.783 49.7592L123.181 51.5089Z" fill="#FFA685"/>
<path d="M112.948 19.2475L136.44 25.0436L132.589 41.7211C132.589 41.7211 134.019 60.4219 112.838 60.4219C106.236 60.4219 104.366 45.1113 104.091 39.4246C103.981 37.0733 104.146 30.0742 104.146 30.0742C104.091 25.2077 112.948 19.2475 112.948 19.2475Z" fill="#FFA685"/>
<path d="M116.469 38.3856C116.469 38.9324 116.909 39.4246 117.515 39.4246C118.065 39.4246 118.56 38.9871 118.56 38.3856C118.56 37.8388 118.12 37.3467 117.515 37.3467C116.964 37.3467 116.469 37.8388 116.469 38.3856Z" fill="#1E1E1E"/>
<path d="M104.641 38.3856C104.641 38.9324 105.081 39.4246 105.686 39.4246C106.236 39.4246 106.731 38.9871 106.731 38.3856C106.731 37.8388 106.291 37.3467 105.686 37.3467C105.081 37.3467 104.641 37.8388 104.641 38.3856Z" fill="#1E1E1E"/>
<path d="M113.443 23.5673C109.867 25.4264 105.246 30.5117 104.091 34.4487C101.56 32.0427 101.615 27.887 102.495 24.8249C103.375 21.7081 105.686 20.3411 108.602 19.2475C110.252 18.646 111.903 18.3179 113.663 18.1539L113.443 23.5673Z" fill="#CCCCCC"/>
<path d="M132.204 37.8388C123.621 35.925 115.699 30.7304 111.683 23.4579C110.858 21.9815 109.977 20.5598 109.207 19.0288C114.984 16.7322 120.871 14.8731 127.142 16.076C134.074 17.4431 139.301 23.1845 139.411 30.2929C139.466 33.6284 136.44 41.9398 135.12 44.9473L132.204 37.8388Z" fill="#DEDBD9"/>
<path d="M130.884 47.5173C133.524 47.5173 135.67 45.3847 135.67 42.7601C135.67 40.1354 133.524 38.0029 130.884 38.0029" fill="#FFA685"/>
<path d="M113.278 40.2448C113.278 43.1975 115.644 45.5488 118.615 45.5488C121.586 45.5488 123.951 43.1975 123.951 40.2448C123.951 37.292 121.586 34.9408 118.615 34.9408C115.699 34.9408 113.278 37.292 113.278 40.2448Z" stroke="#A42B19" stroke-width="2.313" stroke-linecap="round"/>
<path d="M99.7443 40.2448C99.7443 43.1975 102.11 45.5488 105.081 45.5488C108.052 45.5488 110.417 43.1975 110.417 40.2448C110.417 37.292 108.052 34.9408 105.081 34.9408C102.165 34.9408 99.7443 37.292 99.7443 40.2448Z" stroke="#A42B19" stroke-width="2.313" stroke-linecap="round"/>
<path d="M114.709 36.6358H109.262" stroke="#A42B19" stroke-width="2.313" stroke-linecap="round"/>
<path d="M132.204 37.8388C128.023 37.8388 127.032 40.6275 126.702 42.432C126.097 42.432 123.841 42.432 123.841 42.432" stroke="#A42B19" stroke-width="2.313" stroke-linecap="round"/>
<path d="M129.508 81.3097L136.55 70.9751V56.9223C136.385 56.9223 136.22 56.9223 136.055 56.9223C132.094 56.9223 128.408 58.0706 125.272 59.9844L129.508 81.3097Z" fill="#FFA685"/>
<path d="M118.285 50.8527C118.285 52.3838 117.019 53.5867 115.534 53.5867C113.994 53.5867 112.783 52.3291 112.783 50.8527" stroke="#EC8D75" stroke-width="2.6657" stroke-linecap="round"/>
<path d="M121.916 62.7731C121.916 67.2022 125.547 70.8658 130.058 70.8658C134.515 70.8658 138.201 67.2569 138.201 62.7731" stroke="#F1F1F2" stroke-width="3.3322" stroke-linecap="round"/>
<path d="M136.44 56.9223V100.065C136.44 111.165 143.152 120.734 152.725 124.945C155.366 121.5 156.906 117.289 156.906 112.642V77.2634C156.906 66.0539 147.773 56.9223 136.44 56.9223Z" fill="#89562C"/>
<path d="M115.919 77.2634V112.642C115.919 118.875 118.725 124.453 123.181 128.171V79.9427C123.181 74.8574 121.751 70.1002 119.33 65.9992C117.184 69.28 115.919 73.1077 115.919 77.2634Z" fill="#89562C"/>
<path d="M109.812 206.856C108.822 206.856 107.997 206.036 107.997 205.051V130.577C107.997 126.64 104.751 123.468 100.845 123.468C96.8835 123.468 93.6375 126.694 93.6375 130.577C93.6375 131.561 92.8123 132.381 91.822 132.381C90.8317 132.381 90.0065 131.561 90.0065 130.577C90.0065 124.617 94.8479 119.805 100.845 119.805C106.841 119.805 111.683 124.617 111.683 130.577V205.051C111.683 206.09 110.858 206.856 109.812 206.856Z" fill="#3B2314"/>
<path d="M111.683 134.131H107.997V136.974H111.683V134.131Z" fill="#D8D0BC"/>
<path d="M111.683 139.654H107.997V142.497H111.683V139.654Z" fill="#D8D0BC"/>
<g opacity="0.55">
<path d="M128.628 147.91C127.528 147.91 126.647 148.785 126.647 149.879V173.446H130.553V149.879C130.608 148.785 129.728 147.91 128.628 147.91Z" fill="#EF5B5B"/>
<path d="M144.197 147.91C143.097 147.91 142.217 148.785 142.217 149.879V173.446H146.123V149.879C146.178 148.785 145.298 147.91 144.197 147.91Z" fill="#EF5B5B"/>
<path d="M136.44 147.91C135.34 147.91 134.46 148.785 134.46 149.879V173.446H138.366V149.879C138.421 148.785 137.54 147.91 136.44 147.91Z" fill="#EF5B5B"/>
<path d="M122.796 173.446V149.879C122.796 148.785 121.916 147.91 120.816 147.91C119.715 147.91 118.835 148.785 118.835 149.879V173.446H122.796Z" fill="#EF5B5B"/>
<path d="M152.01 147.91C150.909 147.91 150.029 148.785 150.029 149.879V173.446H153.935V149.879C153.99 148.785 153.11 147.91 152.01 147.91Z" fill="#EF5B5B"/>
</g>
<path d="M95.4531 116.688C95.6731 115.594 96.6634 114.391 97.7637 114.009L100.405 113.079C101.45 112.696 103.1 112.86 104.091 113.462L105.961 114.555C106.951 115.157 112.838 116.633 112.838 116.633L111.463 121.773C111.463 121.773 109.317 121.992 105.961 122.211C104.861 122.265 103.155 122.211 102.22 121.664L101.78 121.39C100.79 120.844 99.1392 120.187 98.0388 119.969L97.0485 119.75C95.9482 119.531 95.178 118.438 95.3981 117.344L95.4531 116.688Z" fill="#FFA685"/>
<path d="M114.379 124.179C124.502 123.851 139.026 120.734 144.638 108.431C149.589 97.2764 149.259 86.5043 149.644 76.0604C149.644 73.6545 147.608 71.686 145.078 71.7406C142.547 71.7406 140.456 73.6545 140.456 75.951C140.236 85.9575 140.016 96.5655 136.385 104.439C132.974 112.204 123.731 114.555 113.828 115.102L114.379 124.179Z" fill="#73472B"/>
<path d="M108.327 115.212V124.343L114.379 124.179L113.883 115.102L108.327 115.212Z" fill="#F6921E"/>
<path d="M65.2492 106.08C64.2589 106.08 63.4337 105.26 63.4337 104.275V95.964C63.4337 94.9798 64.2589 94.1596 65.2492 94.1596C66.2395 94.1596 67.0647 94.9798 67.0647 95.964V104.275C67.0647 105.26 66.2395 106.08 65.2492 106.08Z" fill="#EF5B5B"/>
<path d="M57.767 84.8093L43.0777 44.9473L45.6634 44.0177L57.712 76.6619V50.47H60.4628V84.3718L57.767 84.8093Z" fill="#F6921E"/>
<path d="M64.3689 84.3719H53.7508V91.3709H64.3689V84.3719Z" fill="#F6E8E7"/>
<path d="M60.6278 82.7314H57.3819V85.9575H60.6278V82.7314Z" fill="#CCCCCC"/>
</g>
<defs>
<clipPath id="clip0_4_43">
<rect width="170" height="207.075" fill="white"/>
</clipPath>
</defs>
</svg>
