<svg width="206" height="90" viewBox="0 0 206 90" fill="none" xmlns="http://www.w3.org/2000/svg">
<g clip-path="url(#clip0_472_24)">
<path d="M24.5 21.7C20 21.7 16.5 23.1 14.4 24.5V0H0V44.8H14.5V42.4C14.5 38 17.3 34.9 21.2 34.9C25.8 34.9 27.9 38.4 27.9 42.1V67.7H42.4V39C42.3 29.3 34.5 21.7 24.5 21.7Z" fill="#EF5B5B"/>
<path d="M74.9 21.7C60 21.7 50.1 32.6 50.1 45.2C50.1 57.8 60.1 68.7 74.9 68.7C83.7 68.7 90.7 64.9 95 59.2L83.7 51.1C82.1 53.8 78.7 55.5 74.9 55.5C70 55.4 66.9 53 65.4 49.1H98.7C99.9 33.1 89.9 21.7 74.9 21.7ZM65.7 40.3C67 37 70.2 34.5 74.9 34.4C79.3 34.5 82.7 37 84.3 40.3H65.7Z" fill="#EF5B5B"/>
<path d="M121.1 50.4V0H106.6V50.8C106.6 62.6 112.4 68.3 123.3 68.3H126.5V54.8C122.6 54.8 121.1 53.1 121.1 50.4Z" fill="#EF5B5B"/>
<path d="M160.3 21.7C156.6 21.7 152.8 22.6 149.2 24.3V22.8H134.7V90H149.2V66.1C152.8 67.8 156.6 68.7 160.3 68.7C174 68.7 184 57.3 184 45.2C184 33.1 174 21.7 160.3 21.7ZM159.1 55.2C153.1 55.1 149.2 50.7 149.2 45.2C149.2 39.8 153.1 35.3 159.1 35.2C165.1 35.3 169 39.7 169 45.2C169 50.6 165.1 55.1 159.1 55.2Z" fill="#EF5B5B"/>
<path d="M205.3 22.8H190.8V67.6H205.3V22.8Z" fill="#EF5B5B"/>
<path d="M198.1 0C194.1 0 190.9 3.2 190.9 7.2C190.9 11.2 194.1 14.4 198.1 14.4C202.1 14.4 205.3 11.2 205.3 7.2C205.3 3.2 202.1 0 198.1 0Z" fill="#EF5B5B"/>
<path d="M7.2 53.2C3.2 53.2 0 56.4 0 60.4C0 64.4 3.2 67.6 7.2 67.6C11.2 67.6 14.4 64.4 14.4 60.4C14.5 56.4 11.3 53.2 7.2 53.2Z" fill="#EF5B5B"/>
</g>
<defs>
<clipPath id="clip0_472_24">
<rect width="205.3" height="90" fill="white"/>
</clipPath>
</defs>
</svg>
