<svg width="48" height="50" viewBox="0 0 48 50" fill="none" xmlns="http://www.w3.org/2000/svg">
<g clip-path="url(#clip0_406_230)">
<path d="M45.7265 9.82906L45.2992 9.61538C44.6581 9.40171 44.2308 8.97436 44.2308 8.54701V8.33333C43.5898 5.76923 41.0257 3.84615 38.4615 3.84615V3.20513V0.854701C38.4615 0.641026 38.2479 0.42735 38.0342 0.213675C37.6068 0 37.3932 0 37.1795 0C28.6325 3.63248 26.9231 12.3932 26.4957 14.9573C24.1453 15.3846 15.812 17.3077 10.6838 25.2137C10.4701 17.9487 6.62394 14.3162 4.27351 12.8205C3.20514 11.9658 1.49574 12.1795 0.641036 13.4615C-0.213665 14.7436 1.05056e-05 16.453 1.06839 17.3077C3.20514 19.0171 6.62394 23.0769 3.84616 30.9829C1.28206 38.8889 2.77779 43.3761 4.48719 45.9402C6.62394 48.9316 10.0427 50 12.3932 50H30.3419C30.7692 50 31.1966 49.5726 31.1966 49.1453V48.2906C31.1966 46.1538 29.4872 44.4444 27.3504 44.4444H23.9316L25 42.5214C26.2821 40.1709 26.2821 37.1795 24.7863 34.8291C23.2906 32.4786 20.9402 30.9829 18.1624 30.9829H16.2393C15.812 30.9829 15.3846 31.4103 15.3846 31.8376C15.3846 32.265 15.812 32.6923 16.2393 32.6923H17.9487C20.0855 32.6923 22.2222 33.7607 23.2906 35.6838C24.359 37.6068 24.5727 39.9573 23.5043 41.8803L22.0086 44.8718C21.7949 45.0855 21.7949 45.5128 22.0086 45.7265C22.2222 45.9402 22.4359 46.1538 22.6496 46.1538H27.3504C28.6325 46.1538 29.7009 47.2222 29.7009 48.5043H12.3932C10.8974 48.5043 7.69232 47.8632 5.76924 45.0855C3.63249 42.094 3.41881 37.3932 5.34189 31.6239C8.33334 22.8632 4.48719 18.1624 1.92309 16.2393C1.49574 15.5983 1.49574 14.9573 1.92309 14.3162C2.13676 13.8889 2.99146 13.6752 3.41881 14.1026C5.76924 15.5983 9.82907 19.6581 9.18805 28.2051C7.69232 31.4103 6.83762 35.6838 6.83762 40.5983V41.453C6.83762 41.8803 7.26497 42.3077 7.69232 42.3077C8.11967 42.3077 8.54702 41.8803 8.54702 41.453V40.5983C8.54702 18.1624 26.4957 16.453 27.3504 16.453C27.7778 16.453 27.9915 16.0256 27.9915 15.812C27.9915 15.812 28.8462 6.19658 36.5385 2.13675V3.20513V4.70085V6.19658C36.5385 6.62393 36.9658 7.05128 37.3932 7.05128C37.8205 7.05128 38.2479 6.62393 38.2479 6.19658V5.55556C40.1709 5.55556 42.094 7.05128 42.5214 8.97436V9.18803C42.7351 10.2564 43.5898 11.1111 44.8718 11.3248L45.2992 11.5385C45.7265 11.5385 45.9402 11.9658 45.9402 12.3932V13.0342C45.7265 14.5299 44.4445 15.812 42.7351 15.812C40.3846 15.812 38.2479 17.735 38.2479 20.2991V25C38.2479 27.5641 37.3932 30.1282 35.6838 32.0513L33.7607 34.188C33.547 34.4017 33.547 34.4017 33.547 34.6154V45.2991C33.547 45.7265 33.9744 46.1538 34.4017 46.1538H35.8974C37.1795 46.1538 38.2479 47.2222 38.2479 48.5043H34.4017C33.9744 48.5043 33.547 48.9316 33.547 49.359C33.547 49.7863 33.9744 50.2137 34.4017 50.2137H39.1026C39.5299 50.2137 39.9573 49.7863 39.9573 49.359V48.5043C39.9573 46.3675 38.2479 44.6581 36.1111 44.6581H35.2564V35.0427L36.9658 32.906C38.8889 30.5556 39.9573 27.7778 39.9573 25V20.0855C39.9573 18.5897 41.2393 17.3077 42.7351 17.3077C45.0855 17.3077 47.0086 15.5983 47.4359 13.2479V12.6068C47.6496 11.3248 46.7949 10.0427 45.7265 9.82906Z" fill="#1E1E1E"/>
</g>
<defs>
<clipPath id="clip0_406_230">
<rect width="47.4359" height="50" fill="white"/>
</clipPath>
</defs>
</svg>
