<svg width="41" height="50" viewBox="0 0 41 50" fill="none" xmlns="http://www.w3.org/2000/svg">
<g clip-path="url(#clip0_406_199)">
<path d="M36.6667 41.4583H4.58337V42.9167H36.6667V41.4583Z" fill="#1E1E1E"/>
<path d="M25 10.2083H15.625V11.6667H25V10.2083Z" fill="#1E1E1E"/>
<path d="M38.9583 10.8333C38.9583 10.4167 38.5417 10 38.125 10H29.5833V9.375C29.5833 4.16667 25.4167 0 20.2083 0C15 0 10.8333 4.16667 10.8333 9.375V10.2083H2.29167C1.875 10.2083 1.66667 10.4167 1.45833 10.8333L0 46.0417C0 48.125 1.66667 50 3.95833 50H36.6667C38.75 50 40.625 48.3333 40.625 46.0417L38.9583 10.8333ZM36.6667 48.3333H3.95833C2.70833 48.3333 1.66667 47.2917 1.66667 46.0417L3.125 11.6667H11.0417V15C10.4167 15.4167 10.2083 15.8333 10.2083 16.4583C10.2083 17.2917 10.8333 17.9167 11.6667 17.9167C12.5 17.9167 13.125 17.2917 13.125 16.4583C13.125 15.8333 12.7083 15.4167 12.2917 15.2083V9.375C12.2917 5 15.8333 1.66667 20 1.66667C24.1667 1.66667 27.7083 5.20833 27.7083 9.375V15C27.2917 15.2083 26.875 15.8333 26.875 16.25C26.875 17.0833 27.5 17.7083 28.3333 17.7083C29.1667 17.7083 29.7917 17.0833 29.7917 16.25C29.7917 15.625 29.375 15.2083 28.9583 15V11.6667H37.5L38.9583 46.0417C38.9583 47.2917 37.9167 48.3333 36.6667 48.3333Z" fill="#1E1E1E"/>
</g>
<defs>
<clipPath id="clip0_406_199">
<rect width="40.625" height="50" fill="white"/>
</clipPath>
</defs>
</svg>
