<svg width="54" height="50" viewBox="0 0 54 50" fill="none" xmlns="http://www.w3.org/2000/svg">
<g clip-path="url(#clip0_406_192)">
<path d="M52.3605 48.2833H33.691C38.412 46.1374 41.8455 41.6309 42.7039 36.4807L49.3562 33.691C51.5021 32.8326 53.0043 30.6867 53.0043 28.3262C53.0043 25.1073 50.4292 22.5322 47.2103 22.5322C43.9914 22.5322 41.4163 25.1073 41.4163 28.3262V33.2618C41.4163 41.4163 34.764 48.2833 26.3949 48.2833H24.6781C16.5236 48.2833 9.65665 41.6309 9.65665 33.2618V21.6738C9.65665 21.2446 10.0858 20.8155 10.515 20.8155H36.2661C36.6953 20.8155 37.1245 20.3863 37.1245 19.9571C37.1245 19.5279 36.6953 19.0987 36.2661 19.0987H10.7296C9.44206 19.0987 8.15451 20.1717 8.15451 21.6738V33.2618C8.15451 39.9142 12.0172 45.4936 17.5966 48.2833H0.858369C0.429185 48.2833 0 48.7125 0 49.1416C0 49.5708 0.429185 50 0.858369 50H24.8927H26.6094H52.3605C52.7897 50 53.2189 49.5708 53.2189 49.1416C53.2189 48.7125 53.0043 48.2833 52.3605 48.2833ZM43.3476 33.2618V28.3262C43.3476 25.9657 45.279 24.2489 47.4249 24.2489C49.7854 24.2489 51.5021 26.1803 51.5021 28.3262C51.5021 30.0429 50.4292 31.5451 48.927 32.1889L43.1331 34.5494C43.3476 34.1202 43.3476 33.691 43.3476 33.2618Z" fill="#1E1E1E"/>
<path d="M18.0257 15.6652C18.2403 15.6652 18.2403 15.6652 18.4549 15.6652C18.6695 15.6652 19.0987 15.4506 19.0987 15.2361C19.957 13.5193 21.6738 12.4464 23.6051 12.4464H31.3304C33.2618 12.4464 34.9785 11.588 36.0514 10.0858C37.339 8.58369 37.7682 6.65236 37.339 4.93562C36.9098 2.36051 34.7639 0.429182 32.4034 -2.3711e-06C29.8283 -0.429187 27.4678 0.643774 25.9656 2.7897C25.751 3.21888 25.751 3.86266 26.1802 4.07725C26.6094 4.29184 27.0386 4.29184 27.2532 3.86266C28.3261 2.36051 30.0429 1.50214 31.9742 1.71674C33.9055 1.93133 35.1931 3.43347 35.6223 5.36481C35.8369 6.65236 35.6223 8.15451 34.7639 9.22747C33.9055 10.3004 32.618 10.9442 31.3304 10.9442H23.6051C21.03 10.7296 18.6695 12.2318 17.5965 14.5923V14.8069C17.3819 15.0215 17.5965 15.4506 18.0257 15.6652Z" fill="#1E1E1E"/>
</g>
<defs>
<clipPath id="clip0_406_192">
<rect width="53.2189" height="50" fill="white"/>
</clipPath>
</defs>
</svg>
