<svg id="Layer_1" data-name="Layer 1" xmlns="http://www.w3.org/2000/svg" viewBox="0 0 50 50"><defs><style>.cls-1{fill:#1e1e1e;}</style></defs><title>support</title><path class="cls-1" d="M47.66,19.53h-1.1a.77.77,0,0,1-.72-.48l-1.9-4.58a.79.79,0,0,1,.17-.85l.78-.77a2.37,2.37,0,0,0,0-3.32L40.47,5.11a2.36,2.36,0,0,0-3.32,0l-.77.78a.79.79,0,0,1-.85.17L31,4.16a.77.77,0,0,1-.48-.72V2.34A2.34,2.34,0,0,0,28.13,0H21.88a2.35,2.35,0,0,0-2.35,2.34v1.1a.77.77,0,0,1-.48.72l-4.57,1.9a.8.8,0,0,1-.86-.17l-.77-.78a2.42,2.42,0,0,0-3.32,0L5.11,9.53a2.36,2.36,0,0,0,0,3.32l.78.77a.79.79,0,0,1,.17.85l-1.9,4.58a.77.77,0,0,1-.72.48H2.34A2.34,2.34,0,0,0,0,21.87v6.25a2.35,2.35,0,0,0,2.34,2.35h1.1a.77.77,0,0,1,.72.48l1.9,4.58a.79.79,0,0,1-.17.85l-.78.77a2.36,2.36,0,0,0,0,3.32l4.42,4.42a2.42,2.42,0,0,0,3.32,0l.77-.78a.8.8,0,0,1,.86-.17l4.57,1.9a.77.77,0,0,1,.48.72v1.1A2.35,2.35,0,0,0,21.88,50h6.25a2.34,2.34,0,0,0,2.34-2.34v-1.1a.77.77,0,0,1,.48-.72.78.78,0,0,0-.6-1.45,2.34,2.34,0,0,0-1.44,2.17v1.1a.78.78,0,0,1-.78.78H21.88a.78.78,0,0,1-.79-.78v-1.1a2.34,2.34,0,0,0-1.44-2.17L15.07,42.5a2.31,2.31,0,0,0-2.55.51l-.78.77a.78.78,0,0,1-1.1,0L6.22,39.36a.77.77,0,0,1,0-1.1L7,37.48a2.31,2.31,0,0,0,.51-2.55L5.61,30.35a2.34,2.34,0,0,0-2.17-1.44H2.34a.78.78,0,0,1-.78-.79V21.87a.78.78,0,0,1,.78-.78h1.1a2.34,2.34,0,0,0,2.17-1.44L7.5,15.07A2.31,2.31,0,0,0,7,12.52l-.77-.78a.77.77,0,0,1,0-1.1l4.42-4.42a.78.78,0,0,1,1.1,0l.78.77a2.31,2.31,0,0,0,2.55.51l4.58-1.89a2.34,2.34,0,0,0,1.44-2.17V2.34a.78.78,0,0,1,.79-.78h6.25a.78.78,0,0,1,.78.78v1.1a2.34,2.34,0,0,0,1.44,2.17L34.93,7.5A2.31,2.31,0,0,0,37.48,7l.78-.77a.77.77,0,0,1,1.1,0l4.42,4.42a.75.75,0,0,1,.23.55.76.76,0,0,1-.23.55l-.78.78a2.32,2.32,0,0,0-.5,2.55l1.89,4.58a2.34,2.34,0,0,0,2.17,1.44h1.1a.78.78,0,0,1,.78.78v6.25a.78.78,0,0,1-.78.79h-1.1a2.34,2.34,0,0,0-2.17,1.44.78.78,0,0,0,1.45.6.77.77,0,0,1,.72-.48h1.1A2.35,2.35,0,0,0,50,28.12V21.87A2.34,2.34,0,0,0,47.66,19.53Z"/><path class="cls-1" d="M38.61,28.67A14.06,14.06,0,0,0,21,11.52a.74.74,0,0,0-.53.55.77.77,0,0,0,.2.74l6.72,6.8c0,.68,0,1.22,0,1.75v1.75l-4.23,4.23H19.59l-6.7-6.8a.81.81,0,0,0-.74-.21.79.79,0,0,0-.56.53A14.09,14.09,0,0,0,25,39.05a13.88,13.88,0,0,0,3.61-.48l9.24,9.25a7,7,0,0,0,10-10Zm8.1,18a5.46,5.46,0,0,1-7.73,0L30.28,38c.47-.19.93-.4,1.39-.64A.8.8,0,0,0,32,36.32.78.78,0,0,0,30.93,36,12.5,12.5,0,0,1,12.76,22.64l6,6a.77.77,0,0,0,.56.23h4.17a.81.81,0,0,0,.55-.23L28.68,24a.83.83,0,0,0,.23-.55c0-.85,0-1.46,0-2.08V19.29a.79.79,0,0,0-.23-.55l-6-6A12.5,12.5,0,0,1,36.07,30.85a.78.78,0,1,0,1.38.73A12.17,12.17,0,0,0,38,30.31L46.71,39A5.46,5.46,0,0,1,46.71,46.71Z"/><path class="cls-1" d="M42.58,39.06a3.52,3.52,0,0,0-2.49,6,3.49,3.49,0,0,0,2.49,1,3.45,3.45,0,0,0,2.48-1,3.52,3.52,0,0,0-2.48-6ZM44,44a2,2,0,0,1-2.76,0A2,2,0,1,1,44,44Z"/></svg>