<svg width="49" height="50" viewBox="0 0 49 50" fill="none" xmlns="http://www.w3.org/2000/svg">
<g clip-path="url(#clip0_406_219)">
<path d="M48.4444 48.8889L46.2222 44.8889C45.7778 44.2222 46 43.3333 46 42.4444C46 42.2222 46 42 46 41.7778C46.4444 38.4444 45.1111 34.4444 42.8889 31.1111L38 23.5556C37.5555 22.8889 36.8889 22.4444 36 22.2222C35.1111 22 34.4444 22.2222 33.7778 22.6667C33.3333 22.8889 32.8889 23.3333 32.6667 24C31.5555 23.1111 30.2222 23.1111 28.8889 23.7778C28.4444 24 28 24.4444 27.7778 25.1111C27.3333 24.6667 26.8889 24.4444 26.4444 24.4444C25.5555 24.2222 24.8889 24.4444 24.2222 24.8889C23.7778 25.1111 23.3333 25.5556 23.1111 26L18 18.4444C17.5555 17.7778 16.8889 17.3333 16.2222 17.3333C15.3333 17.1111 14.6667 17.3333 14 17.7778C13.1111 18.2222 12.6667 18.8889 12.4444 19.7778C12.2222 20.6667 12.4444 21.3333 12.8889 22L20 32.4444C18.8889 32.2222 18 32.4444 17.3333 32.6667C15.5555 33.7778 16.6667 35.5556 17.1111 36.4444L18.8889 39.1111H5.55554V40.6667H19.7778L20.8889 42.4444C22.2222 44.6667 24.2222 46.4444 26.2222 47.5556C26.4444 47.7778 26.6667 47.7778 27.1111 47.7778L32 49.3333L32.4444 49.7778C32.6667 50.2222 33.1111 50.2222 33.5555 50C34 49.7778 34 49.3333 33.7778 48.8889L33.3333 48.2222C33.3333 48 33.1111 48 32.8889 48L27.7778 46.4444C27.5555 46.4444 27.3333 46.2222 27.3333 46.2222C25.5555 45.3333 23.7778 43.5556 22.4444 41.7778L18.2222 35.5556C17.3333 34.4444 17.5555 34.2222 18 34C18.6667 33.5556 20.8889 34 21.3333 34.6667L24.4444 39.3333C24.6667 39.7778 25.1111 39.7778 25.5555 39.5556C26 39.3333 26 38.8889 25.7778 38.4444L14.2222 21.1111C14 20.6667 14 20.4444 14 20C14 19.5556 14.2222 19.3333 14.6667 19.1111C15.1111 18.8889 15.5555 18.6667 15.7778 18.8889C16.2222 18.8889 16.4444 19.1111 16.6667 19.5556L22.8889 29.1111V29.3333L24 30.8889C24.2222 31.3333 24.6667 31.3333 25.1111 31.1111C25.5555 30.8889 25.5555 30.4444 25.3333 30L24.4444 28.2222C24.2222 28 24.2222 27.5556 24.2222 27.3333C24.2222 26.8889 24.4444 26.6667 24.8889 26.4444C25.3333 26.2222 25.5555 26.2222 26 26.2222C26.4444 26.2222 26.6667 26.4444 26.8889 26.8889L27.7778 28.4444L28.4444 29.3333C28.6667 29.7778 29.1111 29.7778 29.5555 29.5556C30 29.3333 30 28.8889 29.7778 28.4444L29.1111 27.5556C28.6667 26.8889 28.8889 26 29.5555 25.5556C30.2222 25.1111 31.1111 25.3333 31.5555 26L33.1111 28.4444C33.3333 28.8889 33.7778 28.8889 34.2222 28.6667C34.6667 28.4444 34.6667 28 34.4444 27.5556L33.7778 26.6667C33.5555 26.4444 33.5555 26 33.5555 25.5556C33.5555 25.1111 33.7778 24.8889 34.2222 24.6667C34.6667 24.4444 34.8889 24.4444 35.3333 24.4444C35.7778 24.4444 36 24.6667 36.2222 25.1111L41.1111 32.6667C43.1111 35.7778 44.2222 39.3333 43.7778 42.4444C43.7778 42.6667 43.7778 42.8889 43.7778 43.1111C43.5555 44.2222 43.5555 45.3333 44.2222 46.4444L46.4444 50.4444C46.6667 50.6667 46.8889 50.8889 47.1111 50.8889C47.3333 50.8889 47.3333 50.8889 47.5555 50.8889C48.4444 49.7778 48.6667 49.3333 48.4444 48.8889Z" fill="#1E1E1E"/>
<path d="M15.5555 14.8889C17.7777 14.8889 19.7777 16.2222 20.6666 18.2222C20.8888 18.6666 21.3333 18.8889 21.7777 18.6666C22.2222 18.4444 22.4444 18 22.2222 17.7778C21.1111 15.1111 18.4444 13.3333 15.5555 13.3333C11.7777 13.3333 8.66663 16.4444 8.66663 20.4444C8.66663 22 9.33329 23.5555 10.4444 24.8889C10.6666 25.1111 10.8888 25.1111 11.1111 25.1111C11.3333 25.1111 11.5555 25.1111 11.5555 24.8889C11.7777 24.6666 12 24 11.5555 23.7778C10.6666 22.6666 10.2222 21.5555 10.2222 20.4444C10.2222 17.3333 12.6666 14.8889 15.5555 14.8889Z" fill="#1E1E1E"/>
<path d="M1.55556 46.2222V4C1.55556 2.66667 2.66667 1.55556 4 1.55556H26.6667C28 1.55556 29.1111 2.66667 29.1111 4V18.8889H30.6667V4C30.6667 1.77778 28.8889 0 26.6667 0H4C1.77778 0 0 1.77778 0 4V46.2222C0 48.4444 1.77778 50.2222 4 50.2222H22V48.6667H4C2.66667 48.4444 1.55556 47.5556 1.55556 46.2222Z" fill="#1E1E1E"/>
<path d="M25.1111 5.55554H5.55554V7.1111H25.1111V5.55554Z" fill="#1E1E1E"/>
<path d="M18 45.3333C18.4444 45.3333 18.8889 44.8889 18.8889 44.4444C18.8889 44 18.4444 43.5555 18 43.5555H12.4444C12 43.5555 11.5555 44 11.5555 44.4444C11.5555 44.8889 12 45.3333 12.4444 45.3333H18Z" fill="#1E1E1E"/>
</g>
<defs>
<clipPath id="clip0_406_219">
<rect width="48.4444" height="50" fill="white"/>
</clipPath>
</defs>
</svg>
