<svg width="50" height="50" viewBox="0 0 50 50" fill="none" xmlns="http://www.w3.org/2000/svg">
<g clip-path="url(#clip0_406_235)">
<path d="M39.6996 21.8884C34.1202 21.8884 29.6138 26.3949 29.6138 31.9743C29.6138 38.412 38.8412 49.1416 39.2704 49.5708C39.485 49.7854 39.6996 49.7854 39.9142 49.7854C40.1288 49.7854 40.3434 49.7854 40.558 49.5708C40.9872 49.1416 50.2146 38.412 50.2146 31.9743C50 26.3949 45.4936 21.8884 39.6996 21.8884ZM39.6996 47.8541C37.7683 45.279 31.1159 36.9099 31.1159 31.9743C31.1159 27.2532 34.9786 23.3906 39.6996 23.3906C44.4206 23.3906 48.2833 27.2532 48.2833 31.9743C48.2833 36.9099 41.8455 45.4936 39.6996 47.8541Z" fill="#1E1E1E"/>
<path d="M39.6995 26.6095C36.6952 26.6095 34.3347 28.97 34.3347 31.9743C34.3347 34.9786 36.6952 37.3391 39.6995 37.3391C42.7038 37.3391 45.0643 34.9786 45.0643 31.9743C45.0643 28.97 42.7038 26.6095 39.6995 26.6095ZM39.6995 35.837C37.5536 35.837 35.8369 34.1202 35.8369 31.9743C35.8369 29.8284 37.5536 28.1116 39.6995 28.1116C41.8454 28.1116 43.5622 29.8284 43.5622 31.9743C43.5622 34.1202 41.8454 35.837 39.6995 35.837Z" fill="#1E1E1E"/>
<path d="M8.58369 24.2489C8.79828 24.2489 9.01288 24.2489 9.22747 24.0343C9.44206 23.6052 17.1674 14.1631 17.1674 8.58369C17.1674 3.86266 13.3047 0 8.58369 0C3.86266 0 0 3.86266 0 8.58369C0 14.1631 7.72532 23.6052 7.93991 23.8197C8.15451 24.0343 8.3691 24.2489 8.58369 24.2489ZM8.58369 1.50215C12.4464 1.50215 15.6652 4.72103 15.6652 8.58369C15.6652 12.8755 10.515 19.9571 8.58369 22.103C6.86695 19.9571 1.50215 12.8755 1.50215 8.58369C1.50215 4.72103 4.72103 1.50215 8.58369 1.50215Z" fill="#1E1E1E"/>
<path d="M13.3047 8.5837C13.3047 6.00859 11.1588 3.86267 8.5837 3.86267C6.00859 3.86267 3.86267 6.00859 3.86267 8.5837C3.86267 11.1588 6.00859 13.3047 8.5837 13.3047C11.1588 13.3047 13.3047 11.1588 13.3047 8.5837ZM5.36482 8.5837C5.36482 6.86696 6.86696 5.36482 8.5837 5.36482C10.3004 5.36482 11.8026 6.86696 11.8026 8.5837C11.8026 10.3004 10.3004 11.8026 8.5837 11.8026C6.86696 11.8026 5.36482 10.3004 5.36482 8.5837Z" fill="#1E1E1E"/>
<path d="M33.4764 48.2833H8.58369C4.72103 48.2833 1.50215 45.0644 1.50215 41.2018C1.50215 37.3391 4.72103 34.3348 8.58369 34.3348H20.6009C23.8197 34.3348 26.3949 31.7597 26.3949 28.5408C26.3949 25.3219 23.8197 22.7468 20.6009 22.7468H13.9485C13.5193 22.7468 13.0901 23.176 13.0901 23.6052C13.0901 24.0344 13.5193 24.4636 13.9485 24.4636H20.6009C22.9614 24.4636 24.8927 26.3949 24.8927 28.7554C24.8927 31.1159 22.9614 33.0473 20.6009 33.0473H8.58369C3.86266 33.0473 0 36.9099 0 41.6309C0 46.352 3.86266 50.2146 8.58369 50.2146H33.4764C33.9056 50.2146 34.3348 49.7855 34.3348 49.3563C34.3348 48.7125 33.9056 48.2833 33.4764 48.2833Z" fill="#1E1E1E"/>
</g>
<defs>
<clipPath id="clip0_406_235">
<rect width="50" height="50" fill="white"/>
</clipPath>
</defs>
</svg>
